<?xml version="1.0" encoding="utf-8"?>
<!-- Generator: Adobe Illustrator 16.0.0, SVG Export Plug-In . SVG Version: 6.00 Build 0)  -->
<!DOCTYPE svg PUBLIC "-//W3C//DTD SVG 1.1//EN" "http://www.w3.org/Graphics/SVG/1.1/DTD/svg11.dtd">
<svg version="1.1" id="レイヤー_1" xmlns="http://www.w3.org/2000/svg" xmlns:xlink="http://www.w3.org/1999/xlink" x="0px"
	 y="0px" width="80px" height="80px" viewBox="0 0 80 80" enable-background="new 0 0 80 80" xml:space="preserve">
<circle opacity="0.9" fill="#837254" enable-background="new    " cx="40" cy="40" r="40"/>
<g>
	<g>
		<path fill="#E9E3CE" d="M23.752,58.875c-0.318-0.182-0.5-0.329-0.5-0.59c0-0.363,0.284-0.659,0.602-0.659
			c0.238,0,0.522,0.147,0.954,0.42c0.239,0.147,1.431,0.92,2.691,1.874c0.658-1.113,1.135-2.43,1.441-3.293
			c0.114-0.317,0.216-0.567,0.602-0.567c0.284,0,0.75,0.136,0.75,0.591c0,0.499-0.965,2.633-1.828,4.029
			c0.954,0.795,1.578,1.306,2.1,1.816c0.454,0.443,0.579,0.602,0.579,0.863c0,0.386-0.352,0.704-0.715,0.704
			c-0.295,0-0.511-0.182-0.738-0.421c-0.67-0.703-1.238-1.248-1.964-1.896c-1.487,1.987-3.27,3.179-4.019,3.633
			c-0.352,0.216-0.783,0.432-1.112,0.432c-0.375,0-0.659-0.363-0.659-0.682c0-0.295,0.147-0.374,0.704-0.658
			c0.84-0.432,2.634-1.374,4.167-3.485C25.807,60.191,24.513,59.329,23.752,58.875z"/>
		<path fill="#E9E3CE" d="M42.455,63.711c0.148,0,0.637,0,0.637,0.625c0,0.533-0.307,0.636-0.637,0.636h-8.707
			c-0.182,0-0.647-0.012-0.647-0.625c0-0.488,0.272-0.636,0.647-0.636H42.455z M41.615,57.036c0.159,0,0.647,0,0.647,0.636
			c0,0.556-0.375,0.624-0.647,0.624h-7.072c-0.159,0-0.647,0-0.647-0.624c0-0.545,0.341-0.636,0.647-0.636H41.615z"/>
		<path fill="#E9E3CE" d="M52.962,64.154c0.137,0,0.591,0.011,0.591,0.578c0,0.579-0.443,0.591-0.591,0.591h-7.038
			c-0.137,0-0.591,0-0.591-0.579c0-0.545,0.386-0.59,0.591-0.59h4.257c0.204-1.192,0.442-3.576,0.442-4.064
			c0-0.307-0.113-0.352-0.396-0.352h-3.44c-0.204,0-0.59-0.046-0.59-0.568c0-0.488,0.317-0.59,0.59-0.59h4.076
			c0.272,0,1.032,0,1.032,1.044c0,0.114-0.057,1.521-0.487,4.53H52.962z"/>
		<path fill="#E9E3CE" d="M56.43,61.656c-0.204,0-0.715,0-0.715-0.646c0-0.637,0.454-0.659,0.715-0.659h8.719
			c0.205,0,0.704,0,0.704,0.647c0,0.646-0.465,0.658-0.704,0.658H56.43z"/>
	</g>
	<g>
		<path fill="#E9E3CE" d="M19.98,22.502h36.76v7.877H19.98V22.502z M19.98,33.005h36.76v7.877H19.98V33.005z M19.98,43.509h36.76
			v7.878H19.98V43.509z"/>
		<path fill="#E9E3CE" d="M62.144,44.82l7.879-7.876l-7.879-7.878V44.82z"/>
	</g>
</g>
</svg>
