<?xml version="1.0" encoding="utf-8"?>
<!-- Generator: Adobe Illustrator 21.0.0, SVG Export Plug-In . SVG Version: 6.00 Build 0)  -->
<svg version="1.1" id="レイヤー_2" xmlns="http://www.w3.org/2000/svg" xmlns:xlink="http://www.w3.org/1999/xlink" x="0px"
	 y="0px" viewBox="0 0 354.2 79" style="enable-background:new 0 0 354.2 79;" xml:space="preserve">
<style type="text/css">
	.st0{fill:#D8BB7F;}
</style>
<g>
	<path class="st0" d="M25.4,46.2H0v-6.8h25.4V46.2z"/>
	<path class="st0" d="M87.3,16.5L68.3,79H49.4l-19-62.5H44l14.7,55.6l14.9-55.6H87.3z"/>
	<path class="st0" d="M112.2,10.1H98.6V0h13.5V10.1z M112.2,79H98.6V16.6h13.5V79z"/>
	<path class="st0" d="M172.8,61.7c0,4.1-0.7,7.7-2,10.9c-1.9,4.3-4.8,6.4-8.7,6.4h-37.5v-6.6h30.6c2.1,0,3.8-1.3,5-3.8
		c0.8-1.9,1.2-4,1.2-6.3c0-2.3-0.4-4.4-1.2-6.3c-1.2-2.6-2.8-3.9-5-3.9h-20.9c-4.1,0-7.3-2.3-9.5-7c-1.8-3.6-2.7-7.5-2.7-11.7
		c0-4.4,0.9-8.1,2.8-11.1c2.2-3.8,5.6-5.7,10-5.7h31.8v6.7h-27.1c-1.9,0-3.3,1.3-4.3,3.8c-0.7,1.8-1.1,3.7-1.1,6
		c0,2.1,0.4,4.1,1.1,6c1,2.5,2.4,3.7,4.3,3.7h22.5c3.7,0,6.6,2.5,8.6,7.4C172.1,53.7,172.8,57.6,172.8,61.7z"/>
	<path class="st0" d="M197.4,10.1h-13.5V0h13.5V10.1z M197.4,79h-13.5V16.6h13.5V79z"/>
	<path class="st0" d="M264.8,58c0,6.6-0.8,11.4-2.5,14.4c-2.5,4.4-7.1,6.6-13.8,6.6h-37V0h13.4v72.4c1.1,0,3.3,0,6.7,0
		c2.8,0,5,0,6.7,0c6.2,0,10.1-1.1,11.7-3.3c1.1-1.6,1.6-5.3,1.6-11V36.3c0-4-0.4-6.8-1.2-8.6c-1.3-3-3.7-4.5-7.4-4.5h-11.6v-6.6
		h17.1c6.7,0,11.3,2.1,13.8,6.4c1.7,3.1,2.6,7.9,2.6,14.6L264.8,58L264.8,58z"/>
	<path class="st0" d="M290,79h-13.5V0.1H290L290,79L290,79z"/>
	<path class="st0" d="M354.2,35c0,4.3-0.8,8.1-2.4,11.3c-2.1,4.4-5.3,6.6-9.5,6.6h-18.7v-6.6h11.1c2.6,0,4.5-1.6,5.8-4.9
		c0.9-2.3,1.3-4.9,1.3-7.7c0-2.3-0.3-4.4-0.9-6.3c-0.8-2.8-2.1-4.2-3.9-4.2h-13.3c-3.7,0-6.1,1.4-7.4,4.3c-0.8,1.7-1.2,4.6-1.2,8.5
		v23.7c0,4.6,0.5,7.7,1.5,9.3c1.5,2.3,4.6,3.5,9.4,3.5c-1.9,0,5.9,0,23.4,0V79H318c-6.8,0-11.4-1.9-13.8-5.7
		c-1.7-2.8-2.5-7.4-2.5-14V36.2c0-6.4,0.8-11.1,2.5-13.8c2.4-3.8,7-5.7,13.8-5.7h24.2c4.1,0,7.3,2.3,9.5,6.8
		C353.4,26.8,354.2,30.7,354.2,35z"/>
</g>
</svg>
